<svg xmlns="http://www.w3.org/2000/svg" width="12.8" height="16" viewBox="0 0 12.8 16">
  <path id="ic_lock_24px" d="M15.2,6.333h-.8V4.81A3.91,3.91,0,0,0,10.4,1a3.91,3.91,0,0,0-4,3.81V6.333H5.6A1.568,1.568,0,0,0,4,7.857v7.619A1.568,1.568,0,0,0,5.6,17h9.6a1.568,1.568,0,0,0,1.6-1.524V7.857A1.568,1.568,0,0,0,15.2,6.333ZM10.4,13.19A1.526,1.526,0,1,1,12,11.667,1.568,1.568,0,0,1,10.4,13.19Zm2.48-6.857H7.92V4.81A2.425,2.425,0,0,1,10.4,2.448,2.425,2.425,0,0,1,12.88,4.81Z" transform="translate(-4 -1)" fill="#fff"/>
</svg>
