<svg xmlns="http://www.w3.org/2000/svg" width="18" height="18" viewBox="0 0 18 18">
  <g id="Group_1614" data-name="Group 1614" transform="translate(-1571 -945)">
    <rect id="Rectangle_1340" data-name="Rectangle 1340" width="18" height="18" transform="translate(1571 945)" fill="none"/>
    <path id="account-card-details" d="M1.5,3h15A1.556,1.556,0,0,1,18,4.5V15a1.556,1.556,0,0,1-1.5,1.5H1.5A1.556,1.556,0,0,1,0,15V4.5A1.556,1.556,0,0,1,1.5,3m9,2.25V6h6V5.25h-6m0,1.5V7.5h6V6.75h-6m0,1.5V9h5.25V8.25H10.5M6,11.183c-1.5,0-4.5.817-4.5,2.318v.75h9V13.5c0-1.5-3-2.318-4.5-2.318M6,5.25A2.25,2.25,0,1,0,8.25,7.5,2.25,2.25,0,0,0,6,5.25Z" transform="translate(1571 944)" fill="#fff"/>
  </g>
</svg>
