<svg xmlns="http://www.w3.org/2000/svg" width="250" height="71.798" viewBox="0 0 250 71.798">
  <g id="logo" transform="translate(-0.008 -0.04)">
    <path id="Path_2248" data-name="Path 2248" d="M33.8,45h0Zm0,71.8Z" transform="translate(6.969 -44.96)" fill="#fff" fill-rule="evenodd"/>
    <path id="Path_2249" data-name="Path 2249" d="M82.77,80.989c-.449-.474-5.91-3.257-7.411-4.744a34.463,34.463,0,0,0,2.564-11.821c0-2.564,0-11.821-10.782-11.821s-10.77,9.847-10.77,11.821c0,3.846,1.282,7.885,2.564,11.821a5,5,0,0,1-1.282.923,77.353,77.353,0,0,1-6.6-5.128,39.194,39.194,0,0,0,3.128-14.1c0-10.411-6.641-12.642-10.872-12.936H42.243c-4.231.295-10.872,2.564-10.872,12.936A39.1,39.1,0,0,0,34.5,72.04c-2.077,1.846-4.4,3.475-6.6,5.128a4.923,4.923,0,0,1-1.282-.923c1.282-3.936,2.564-8,2.564-11.821,0-1.962,0-11.821-10.77-11.821S7.626,61.872,7.626,64.424A34.489,34.489,0,0,0,10.19,76.245c-1.5,1.5-6.949,4.282-7.411,4.744A3.308,3.308,0,0,0,2.2,84.232c5.693,20.219,21.732,32.053,40.066,32.553h1.064c18.334-.449,34.373-12.321,40.066-32.553a3.308,3.308,0,0,0-.628-3.244ZM21.05,77.745c.231.462.346.923,2.9,3.013-.808.462-1.628,1.051-2.436,1.513a2.154,2.154,0,0,0-1.154,1.974v19.334C13.947,98.246,10.28,91.874,7.537,84.232c1.282-.808,3.846-2.321,5.321-3.474a9.3,9.3,0,0,0,3.013-3.013,1.6,1.6,0,0,0,0-1.282,31.86,31.86,0,0,1-3.013-12.052c0-2.436,0-6.6,5.564-6.6s5.68,4.4,5.68,6.6a34.771,34.771,0,0,1-3.013,12.052,1.282,1.282,0,0,0-.038,1.282Zm39.925,29.193a36.36,36.36,0,0,1-18.167,4.628h-.128a36.386,36.386,0,0,1-18.18-4.628V85.386A94.2,94.2,0,0,0,40.025,73.911c.346-.346.115-1.282,0-1.615a35.463,35.463,0,0,1-3.41-14.372c0-2.564,0-7.59,6.193-7.872,6.18.269,6.18,5.282,6.18,7.872A35.463,35.463,0,0,1,45.512,72.3c-.115.346-.346,1.282,0,1.615A94.337,94.337,0,0,0,60.975,85.386Zm4.167-3.359V84.232a2.154,2.154,0,0,0-1.154-1.974c-.808-.462-1.628-1.051-2.436-1.513,2.564-2.077,2.667-2.564,2.9-3.013a1.282,1.282,0,0,0,0-1.282A34.873,34.873,0,0,1,61.436,64.4c0-2.205,0-6.6,5.68-6.6s5.564,4.167,5.564,6.6A31.86,31.86,0,0,1,69.667,76.45a1.6,1.6,0,0,0,0,1.282,9.308,9.308,0,0,0,3.013,3.013c1.513,1.167,4.051,2.667,5.334,3.474-2.757,7.667-6.475,14.039-12.847,19.36Z" transform="translate(-2 -44.96)" fill="#fff" fill-rule="evenodd"/>
    <path id="Path_2250" data-name="Path 2250" d="M33.38,45Zm0,71.8Z" transform="translate(6.85 -44.96)" fill="#fff" fill-rule="evenodd"/>
    <path id="Path_2251" data-name="Path 2251" d="M169.643,70.309a11.924,11.924,0,0,0-2.128-3.141,11.256,11.256,0,0,0-3.039-2.128,10.911,10.911,0,0,0-3.846-.68,10.039,10.039,0,0,0-3.846.68,8.578,8.578,0,0,0-3.039,2.128,11.923,11.923,0,0,0-2.077,3.141A11.538,11.538,0,0,0,151,74.156v20a9.193,9.193,0,0,0,2.808,6.962,7.193,7.193,0,0,0,3.039,2.026,8.334,8.334,0,0,0,3.846.782,9.834,9.834,0,0,0,6.859-2.808,10.334,10.334,0,0,0,2.128-3.141,10.462,10.462,0,0,0,.795-3.846V74.156a11.617,11.617,0,0,0-.833-3.846Zm-5.731,24.6a3.051,3.051,0,0,1-3.257,3.257,3.128,3.128,0,0,1-3.244-3.308V73.528a2.987,2.987,0,0,1,3.257-2.923,3.051,3.051,0,0,1,3.257,2.923Z" transform="translate(40.03 -39.499)" fill="#fff"/>
    <path id="Path_2252" data-name="Path 2252" d="M152.76,64.045c0-5.616-3.372-10-9.667-9.885-5.616.115-9.1,4.5-9.1,9.885V97.072c0,6.411,3.936,9.77,9.1,9.77,6.064,0,9.667-2.808,9.667-9.77V86.957h-6.411v10.9c0,3.846-5.949,3.705-5.949,0V63.366c.115-3.705,5.846-3.705,5.949,0V73.931h6.411Z" transform="translate(35.232 -42.376)" fill="#fff"/>
    <path id="Path_2253" data-name="Path 2253" d="M126.044,70.329a2.987,2.987,0,0,1,3.257,2.923v9.321h-3.257V88.15h9.77V74.175a9.116,9.116,0,0,0-.782-3.936,8.4,8.4,0,0,0-2.026-3.141,10.347,10.347,0,0,0-3.141-2.128,10.487,10.487,0,0,0-3.846-.68v6.039Zm0,33.706V97.8a3,3,0,0,0,3.257-3.257V92.125h6.513v2.141a8.616,8.616,0,0,1-.782,3.846,8.808,8.808,0,0,1-5.128,5.128,8.629,8.629,0,0,1-3.859.744ZM122.9,73.265a2.885,2.885,0,0,1,3.141-2.936v-6h0a10.923,10.923,0,0,0-3.846.68,11.385,11.385,0,0,0-3.039,2.128,9.411,9.411,0,0,0-1.987,3.192,11.629,11.629,0,0,0-.782,3.936v20a10.488,10.488,0,0,0,.782,3.846,8.423,8.423,0,0,0,2.026,3.141,9.859,9.859,0,0,0,6.859,2.808h0V97.8a3.09,3.09,0,0,1-3.141-3.257v-6.41h3.141v-5.6h-3.141Z" transform="translate(30.267 -39.518)" fill="#fff"/>
    <path id="Path_2254" data-name="Path 2254" d="M118.037,103.556V64.67h-6.411V97.03h-.974a16.463,16.463,0,0,1-2.359,0c-2.564-.115-3.039-2.128-3.141-5.051V64.67H98.6V93.876a8.808,8.808,0,0,0,.782,3.705,11.4,11.4,0,0,0,2.128,3.039,8.667,8.667,0,0,0,3.141,2.128,8.129,8.129,0,0,0,3.705.782Z" transform="translate(25.249 -39.411)" fill="#fff"/>
    <path id="Path_2255" data-name="Path 2255" d="M168.52,64.671v38.886h6.411V71.082c5.5-.231,6.3.68,6.3,4.949v27.527h6.628V74.338a9.411,9.411,0,0,0-9.744-9.667Z" transform="translate(44.973 -39.412)" fill="#fff"/>
    <path id="Path_2256" data-name="Path 2256" d="M86.42,74.44v29.117h6.411V76.35c0-4.385,1.68-5.4,6.513-5.128V64.67H96.138a9.859,9.859,0,0,0-6.744,2.808,12.821,12.821,0,0,0-2.231,3.141,11.039,11.039,0,0,0-.744,3.821Z" transform="translate(21.813 -39.411)" fill="#fff"/>
    <path id="Path_2257" data-name="Path 2257" d="M83.854,61.526V15.793H91.5V9.28H69.7v6.513h7.641V61.526Z" transform="translate(19.66 2.607)" fill="#fff"/>
    <path id="Path_2258" data-name="Path 2258" d="M194.121,106.473V73.767h4.269V67.254h-4.269V64.446c0-2.808,1.128-3.487,3.705-3.705h2.705V54.33h-3.257a9.859,9.859,0,0,0-6.846,2.808,8.436,8.436,0,0,0-2.026,3.18,9.95,9.95,0,0,0-.782,3.705v3.257H184.48v6.513h3.141v32.681Z" transform="translate(49.476 -42.328)" fill="#fff"/>
  </g>
</svg>
